<?xml version="1.0" encoding="UTF-8" standalone="no"?>
<svg
   xmlns:dc="http://purl.org/dc/elements/1.1/"
   xmlns:cc="http://creativecommons.org/ns#"
   xmlns:rdf="http://www.w3.org/1999/02/22-rdf-syntax-ns#"
   xmlns:svg="http://www.w3.org/2000/svg"
   xmlns="http://www.w3.org/2000/svg"
   version="1.0"
   width="2160.000000pt"
   height="2160.000000pt"
   viewBox="0 0 2160.000000 2160.000000"
   preserveAspectRatio="xMidYMid meet"
   id="svg6">
  <metadata
     id="metadata12">
    <rdf:RDF>
      <cc:Work
         rdf:about="">
        <dc:format>image/svg+xml</dc:format>
        <dc:type
           rdf:resource="http://purl.org/dc/dcmitype/StillImage" />
        <dc:title></dc:title>
      </cc:Work>
    </rdf:RDF>
  </metadata>
  <defs
     id="defs10" />
  <g
     transform="translate(0.000000,2160.000000) scale(0.100000,-0.100000)"
     fill="#000000"
     stroke="none"
     id="g4">
    <path
       d="M0 10800 l0 -10800 10800 0 10800 0 0 10800 0 10800 -10800 0 -10800 0 0 -10800z m17685 2130 c0 -4964 1 -4834 -41 -5205 -172 -1528 -884 -2624 -2100 -3233 -560 -280 -1232 -462 -1984 -536 -421 -42 -317 -41 -5075 -41 l-4570 0 -3 1790 c-1 985 0 1800 3 1813 l5 22 4129 0 c3680 0 4143 2 4253 16 519 65 924 227 1218 486 541 476 780 1412 756 2958 -21 1369 -216 3006 -705 5910 -71 421 -126 768 -124 773 2 4 957 6 2121 5 l2117 -3 0 -4755z m-4471 3870 c306 -1828 457 -2872 567 -3908 l23 -213 -2385 -2385 -2384 -2384 -2554 2 -2554 3 128 160 c447 557 1083 1293 1744 2020 90 99 209 234 265 300 638 763 1869 2074 3805 4055 988 1010 3194 3235 3198 3224 2 -5 68 -398 147 -874z m651 -4845 c64 -944 58 -1706 -21 -2260 -25 -183 -53 -321 -99 -503 -126 -490 -322 -798 -635 -997 -81 -52 -226 -125 -247 -125 -7 0 -21 -5 -31 -10 -34 -20 -202 -69 -321 -94 -262 -56 -232 -55 -1643 -55 -720 -1 -1308 0 -1308 1 0 8 4285 4287 4287 4280 1 -4 9 -110 18 -237z"
       id="path2"
       style="fill:#ff2c2c;fill-opacity:1" />
  </g>
</svg>
