<svg width="218" height="218" version="1.1" xmlns="http://www.w3.org/2000/svg">
 <style/>
 <g transform="matrix(1 0 0 1 .001 0)" fill="#fff" fill-rule="evenodd" stroke-width="16.506">
  <path class="bdsicon" d="m155.4 86c2.6846 25.824 5.9211 69-25.4 69l-41 4.7e-4z"/>
  <path class="bdsicon" d="m151 4.7e-4s6.1386 35.342 9.6485 81.553c2.3666 31.159 5.4018 80.137-25.648 79.447h-135v57h138.79c47.429 0 79.207-21.281 79.207-72.667v-145.33z"/>
  <path class="bdsicon" d="m83 155 72-75.206s-2.6302-40.07-7-63.794c-1.0452-5.4573-2.6759-14.79-3-16 0 0-91.227 90.874-112.12 116.85-22.66 24.743-32.881 38.146-32.881 38.146z"/>
 </g>
</svg>
