<?xml version="1.0" encoding="UTF-8"?>
<svg width="218" height="218" version="1.1" xmlns="http://www.w3.org/2000/svg" xmlns:cc="http://creativecommons.org/ns#" xmlns:dc="http://purl.org/dc/elements/1.1/" xmlns:rdf="http://www.w3.org/1999/02/22-rdf-syntax-ns#">
 <metadata>
  <rdf:RDF>
   <cc:Work rdf:about="">
    <dc:format>image/svg+xml</dc:format>
    <dc:type rdf:resource="http://purl.org/dc/dcmitype/StillImage"/>
    <dc:title/>
   </cc:Work>
  </rdf:RDF>
 </metadata>
 <style/>
 <g transform="matrix(.015843 0 0 -.015843 -62.104 280.1)">
  <path d="m12897 17505c-93-93-617-622-1165-1175-2877-2901-4772-4885-5566-5824-188-224-191-227-530-602-457-505-935-1056-1307-1504-185-223-389-477-389-484 0-3 1144-6 2543-6h2542l4778 4778-22 209c-82 765-192 1576-357 2623-61 388-351 2139-357 2150-1 3-78-71-170-165z"/>
  <path d="m13444 17663c10-35 286-1705 360-2178 310-1983 455-3357 472-4485 21-1308-147-2173-522-2696-84-116-139-179-234-262-294-259-699-421-1218-486-110-14-573-16-4253-16h-4129v-3620l4633 3c3493 3 4664 6 4762 15 419 39 626 67 910 123 965 190 1720 564 2290 1134 609 607 973 1403 1110 2425 52 391 49 49 52 5253l3 4807h-2121c-2015 0-2120-1-2115-17z"/>
  <path d="m11700 10055-2145-2145 1345 3c740 2 1365 7 1390 11 232 39 482 102 544 137 10 6 30 13 43 15 14 3 56 20 94 40 402 202 631 522 774 1076 169 662 206 1504 120 2763-9 127-17 233-18 238-1 4-967-958-2147-2138z"/>
 </g>
</svg>
