<svg enable-background="new 0 0 143 35" version="1.1" viewBox="0 0 117 21" xml:space="preserve" xmlns="http://www.w3.org/2000/svg"><title>bads.tm wordmark (black)</title><g transform="translate(0,-14)"><g transform="matrix(.93455 0 0 .93455 -1.6375 .12194)" fill="#fff"><g transform="matrix(1.0491 0 0 1.0491 -24.867 -.91804)" fill="#000"><g fill="#000" stroke-width="1.02" aria-label="bads.tm"><path d="m35.516 20.263c-2.0644 0-3.8296 0.86765-5.0563 2.3337v-7.4199h-5.0862v20.913h5.0862v-1.9747c1.2267 1.466 2.9919 2.3337 5.0563 2.3337 4.1587 0 7.0908-3.3509 7.0908-8.108 0-4.7272-2.9321-8.0781-7.0908-8.0781zm-1.5259 11.968c-2.0943 0-3.5304-1.6156-3.5304-3.8895 0-2.2439 1.4361-3.8596 3.5304-3.8596 2.1841 0 3.7399 1.6156 3.7399 3.8596 0 2.2738-1.5558 3.8895-3.7399 3.8895z"/><path d="m52.569 20.263c-2.3935 0-4.6075 0.68814-6.7617 1.7652l1.5857 3.1714c1.3164-0.68814 2.4234-1.1369 3.8895-1.1369 2.1242 0 3.3808 1.1968 3.3808 2.8423v0.20943c-1.1968-0.4787-2.4833-0.74798-3.6202-0.74798-3.6501 0-6.5523 2.1242-6.5523 5.1461 0 2.9321 2.603 4.9366 5.894 4.9366 1.5857 0 3.2013-0.59838 4.2784-1.6755v1.3164h4.8768v-9.1851c0-4.1288-2.9919-6.642-6.9711-6.642zm-0.95741 13.075c-1.3464 0-2.3038-0.77789-2.3038-1.9747s1.0771-2.0644 2.4534-2.0644c1.0472 0 2.1242 0.20943 2.9021 0.50862v1.6455c-0.20943 1.1668-1.5558 1.8849-3.0517 1.8849z"/><path d="m74.289 15.177v7.4199c-1.2267-1.466-2.9919-2.3337-5.0563-2.3337-4.1587 0-7.0908 3.3509-7.0908 8.0781 0 4.7571 2.9321 8.108 7.0908 8.108 2.0644 0 3.8296-0.86765 5.0563-2.3337v1.9747h5.0862v-20.913zm-3.5304 17.054c-2.1841 0-3.7399-1.6156-3.7399-3.8895 0-2.2439 1.5558-3.8596 3.7399-3.8596 2.0943 0 3.5304 1.6156 3.5304 3.8596 0 2.2738-1.4361 3.8895-3.5304 3.8895z"/><path d="m88.829 36.449c3.9792 0 6.4924-2.0046 6.4924-5.1162 0-3.5304-3.0817-4.428-5.8342-5.0862-1.8251-0.4787-2.4833-0.6283-2.4833-1.3164 0-0.4787 0.65822-0.89757 1.5857-0.89757 1.4062 0 3.0817 0.65822 4.428 1.5259l1.855-3.321c-1.7353-1.1668-3.9792-1.9747-6.283-1.9747-3.8296 0-6.2531 2.214-6.2531 5.176 0.02992 3.3509 2.8124 4.1288 5.8043 4.817 1.5259 0.35903 2.5431 0.65822 2.5431 1.4062 0 0.59838-0.6283 0.95741-1.7353 0.95741-1.855 0-3.8296-0.74798-5.2657-1.7652l-2.0345 3.2612c1.8849 1.466 4.5776 2.3337 7.1806 2.3337z"/><path d="m100.79 36.449c1.6455 0 3.0218-1.4062 3.0218-3.1415 0-1.6156-1.3763-3.0218-3.0218-3.0218-1.7951 0-3.1714 1.4062-3.1714 3.0218 0 1.7353 1.3763 3.1415 3.1714 3.1415z"/><path d="m115.63 31.722c-0.29919 0.29919-0.86765 0.50862-1.4361 0.50862-0.80781 0-1.4062-0.68814-1.4062-1.6755v-5.894h3.2013v-4.0391h-3.2013v-4.2485h-4.8469v4.2485h-2.0345v4.0391h2.0345v6.8215c0 2.9021 2.0345 4.9666 4.9366 4.9666 1.3164 0 2.8423-0.59838 3.7698-1.466z"/><path d="m138.13 20.263c-2.2738 0-4.1587 1.0472-4.9965 2.6628-1.0172-1.6455-2.8124-2.6628-4.8768-2.6628-1.8849 0-3.3808 0.89757-4.1288 2.3636v-2.0046h-5.0563v15.468h5.0563v-9.1552c0-1.4062 1.0771-2.4534 2.603-2.4534 1.4361 0 2.4534 1.107 2.4534 2.6628v8.9757h4.8469v-9.1851c0-1.4062 1.0771-2.4534 2.603-2.4534 1.4361 0 2.4534 1.107 2.4534 2.6628v8.9757h4.8469v-9.8733c0-3.5005-2.573-5.9838-5.8043-5.9838z"/></g>
</g></g></g></svg>
