<?xml version="1.0" encoding="utf-8"?>
<!-- Generator: Adobe Illustrator 23.0.1, SVG Export Plug-In . SVG Version: 6.00 Build 0)  -->
<svg version="1.1" id="Layer_1" xmlns="http://www.w3.org/2000/svg" xmlns:xlink="http://www.w3.org/1999/xlink" x="0px" y="0px"
	 viewBox="0 0 334 87" style="enable-background:new 0 0 334 87;" xml:space="preserve">
<style type="text/css">
	.st0{fill:#FFFFFF;}
</style>
<g>
	<path class="st0" d="M14.3,16.55h10.12l13.01,36.74l13.2-36.74h10.11L42.11,68.26h-9.49L14.3,16.55z"/>
	<path class="st0" d="M71.33,14.26c1.68,0,3.13,0.61,4.33,1.83c1.2,1.22,1.81,2.7,1.81,4.43c0,1.71-0.6,3.17-1.79,4.38
		c-1.19,1.21-2.62,1.81-4.28,1.81c-1.71,0-3.16-0.62-4.36-1.85s-1.81-2.72-1.81-4.48c0-1.69,0.6-3.13,1.79-4.32
		S69.64,14.26,71.33,14.26z M66.53,30.01h9.6v38.25h-9.6V30.01z"/>
	<path class="st0" d="M113.07,15.25h9.6v53.02h-9.6v-4.04c-1.87,1.78-3.75,3.06-5.64,3.85c-1.88,0.79-3.93,1.18-6.13,1.18
		c-4.94,0-9.21-1.92-12.82-5.75c-3.6-3.83-5.41-8.6-5.41-14.29c0-5.91,1.74-10.75,5.23-14.52c3.49-3.77,7.72-5.66,12.71-5.66
		c2.29,0,4.45,0.43,6.46,1.3c2.01,0.87,3.87,2.17,5.58,3.9V15.25z M102.98,37.89c-2.97,0-5.43,1.05-7.39,3.15
		c-1.96,2.1-2.94,4.79-2.94,8.07c0,3.3,1,6.02,3,8.16c2,2.13,4.46,3.2,7.38,3.2c3.01,0,5.51-1.05,7.5-3.15
		c1.99-2.1,2.98-4.85,2.98-8.24c0-3.33-0.99-6.02-2.98-8.09C108.53,38.92,106.02,37.89,102.98,37.89z"/>
	<path class="st0" d="M160.6,15.25h9.6v53.02h-9.6v-4.04c-1.87,1.78-3.75,3.06-5.64,3.85c-1.88,0.79-3.93,1.18-6.13,1.18
		c-4.94,0-9.21-1.92-12.82-5.75c-3.6-3.83-5.41-8.6-5.41-14.29c0-5.91,1.74-10.75,5.23-14.52c3.49-3.77,7.72-5.66,12.71-5.66
		c2.29,0,4.45,0.43,6.46,1.3c2.01,0.87,3.88,2.17,5.58,3.9V15.25z M150.52,37.89c-2.97,0-5.43,1.05-7.39,3.15
		c-1.96,2.1-2.94,4.79-2.94,8.07c0,3.3,1,6.02,3,8.16c2,2.13,4.46,3.2,7.38,3.2c3.01,0,5.51-1.05,7.5-3.15
		c1.99-2.1,2.98-4.85,2.98-8.24c0-3.33-0.99-6.02-2.98-8.09C156.06,38.92,153.55,37.89,150.52,37.89z"/>
	<path class="st0" d="M178.85,15.25h9.6v53.02h-9.6V15.25z"/>
	<path class="st0" d="M225.4,30.01h9.6v38.25h-9.6v-4.04c-1.87,1.78-3.75,3.06-5.64,3.85c-1.88,0.79-3.93,1.18-6.13,1.18
		c-4.94,0-9.21-1.92-12.82-5.75c-3.6-3.83-5.41-8.6-5.41-14.29c0-5.91,1.74-10.75,5.23-14.52c3.49-3.77,7.72-5.66,12.71-5.66
		c2.29,0,4.45,0.43,6.46,1.3c2.01,0.87,3.88,2.17,5.58,3.9V30.01z M215.31,37.89c-2.97,0-5.43,1.05-7.39,3.15
		c-1.96,2.1-2.94,4.79-2.94,8.07c0,3.3,1,6.02,3,8.16c2,2.13,4.46,3.2,7.38,3.2c3.01,0,5.51-1.05,7.5-3.15
		c1.99-2.1,2.98-4.85,2.98-8.24c0-3.33-0.99-6.02-2.98-8.09C220.86,38.92,218.34,37.89,215.31,37.89z"/>
</g>
</svg>
