<svg xmlns="http://www.w3.org/2000/svg" viewBox="0 0 286.73999 223.98025"><title>WebViddlaV-black</title><path d="M164.82,0H79.23262a10.85641,10.85641,0,0,0-7.89837,3.33043A14.35374,14.35374,0,0,0,67.14,13.68c.14347,5.45172,3.71736,9.10245,6.56916,11.15728A10.93037,10.93037,0,0,0,80.10664,26.88h22.89967a10.93606,10.93606,0,0,1,9.92736,6.22186,5.34551,5.34551,0,0,1,.31938.92945,10.919,10.919,0,0,1,.567,2.32869l.11836.85218A9.643,9.643,0,0,1,113.7,41.04h0a4.25837,4.25837,0,0,1-.17917.49677,8.39764,8.39764,0,0,1-2.12463,2.96336h0a15.11607,15.11607,0,0,1-6.64176,3.51264l-.23576.05653a23.60993,23.60993,0,0,1-5.50487.6507l-55.32873-.00016a11.07017,11.07017,0,0,0-7.87793,3.13529A16.36118,16.36118,0,0,0,31.38,64.08c.12,4.08,4.32,8.28,4.32,8.28,2.0981,2.52042,5.58058,3.24,8.86,3.24H93.3246a44.05077,44.05077,0,0,1,6.47155.478h0c3.138.9576,8.14385,3.242,8.14385,10.082,0,5.06992-.8131,7.44524-3.73923,9.63205A11.01041,11.01041,0,0,1,97.60217,97.92H64.28194a10.73987,10.73987,0,0,0-5.65818,1.56129c-3.02063,1.86861-6.937,5.7513-7.08375,13.35871-.208,10.78016,8.88,13.28,14.60151,13.32374.435.00333.86232.07626,1.29731.07626l47.95739.00008a10.55105,10.55105,0,0,1,6.67217,2.23514c2.21363,1.7975,3.29585,4.1898,3.15162,8.80478-.12,3.84-2.22439,8.55969-4.92,9.84a13.8423,13.8423,0,0,1-4.55989.602L77.925,147.84a10.59906,10.59906,0,0,0-4.637,1.041c-3.11968,1.51533-7.494,5.05421-6.868,12.879a21.18331,21.18331,0,0,0,1.19475,5.7407A10.90617,10.90617,0,0,0,77.87265,174.48h5.65568a12.22486,12.22486,0,0,1,7.902,2.82187A11.40234,11.40234,0,0,1,95.94,186.24c-.17934,7.95041-3.01584,10.93231-5.94,12a32.10247,32.10247,0,0,1-6.21177.48H62.54757a10.48047,10.48047,0,0,0-6.42144,2.12338A11.94052,11.94052,0,0,0,51.3,210.96a14.21838,14.21838,0,0,0,2.11225,7.35636A10.77544,10.77544,0,0,0,62.56877,223.2H201.54L286.74,0h-54L178.86084,141.56226Z" transform="translate(0 0.00025)"/><path d="M0,111.6c0-11.94884,17.31259-19.85409,28.222,0C17.31259,131.4541,0,123.54883,0,111.6Z" transform="translate(0 0.00025)"/><path d="M39.87,111.6c0,11.94884-17.31259,19.8541-28.222,0C22.55741,91.7459,39.87,99.65117,39.87,111.6Z" transform="translate(0 0.00025)"/><polygon points="14.163 99.495 27.782 99.495 27.87 123.705 12.18 123.705 12.18 99.495 14.163 99.495"/><path d="M7.5075,212.01c0-11.81558,13.14355-19.63266,21.4259,0C20.65105,231.64267,7.5075,223.82556,7.5075,212.01Z" transform="translate(0 0.00025)"/><path d="M37.77642,212.01c0,11.81558-13.14354,19.63266-21.4259,0C24.63287,192.37732,37.77642,200.19443,37.77642,212.01Z" transform="translate(0 0.00025)"/><polygon points="18.093 200.04 28.925 200.04 28.995 223.98 16.515 223.98 16.515 200.04 18.093 200.04"/></svg>