<svg enable-background="new 0 0 143 35" version="1.1" viewBox="0 0 140 22" xml:space="preserve" xmlns="http://www.w3.org/2000/svg"><title>bads.tm full logo (black) Gothic Remaster</title><g transform="translate(0,-13)"><g transform="matrix(.93455 0 0 .93455 -1.6375 .12194)"><g transform="matrix(1.0491 0 0 1.0491 4.9178 -.91804)" stroke-width=".99698"><path d="m29.727 14.01v7.8886c0.72059-0.72104 1.499-1.2616 2.3362-1.6216 0.8372-0.36002 1.7322-0.54053 2.686-0.54053 2.0731 0 3.8352 0.78387 5.2853 2.3516 1.4502 1.5677 2.1757 3.5793 2.1757 6.0336 0 2.3666-0.7495 4.3452-2.2485 5.9389-1.499 1.5917-3.2751 2.3885-5.3292 2.3885-0.91494 0-1.7661-0.16356-2.5545-0.48868-0.78837-0.32711-1.5718-0.85967-2.3502-1.5997v1.6794h-3.9568v-22.03zm4.19 9.4085c-1.2558 0-2.2973 0.42884-3.1246 1.2855-0.82724 0.85668-1.2409 1.9766-1.2409 3.3599 0 1.4122 0.41362 2.5541 1.2409 3.4267 0.82724 0.87064 1.8688 1.3075 3.1246 1.3075 1.2169 0 2.2415-0.4428 3.0727-1.3294 0.83122-0.8866 1.2478-2.0155 1.2478-3.3888 0-1.3633-0.40864-2.4803-1.2259-3.3529-0.81727-0.87263-1.8488-1.3085-3.0947-1.3085z"/><path d="m57.232 20.147h3.9867v15.894h-3.9867v-1.6804c-0.77641 0.73999-1.5578 1.2725-2.3402 1.5997-0.78338 0.32512-1.6306 0.48868-2.5445 0.48868-2.0512 0-3.8252-0.79684-5.3232-2.3885-1.497-1.5937-2.2455-3.5723-2.2455-5.9389 0-2.4543 0.72458-4.4659 2.1727-6.0336 1.4482-1.5677 3.2083-2.3516 5.2784-2.3516 0.95282 0 1.8468 0.18051 2.683 0.54053 0.8372 0.36002 1.6096 0.90056 2.3183 1.6216v-1.7512zm-4.19 3.2721c-1.2319 0-2.2555 0.43582-3.0697 1.3075-0.81528 0.87263-1.2229 1.9896-1.2229 3.3529 0 1.3733 0.41462 2.5032 1.2438 3.3888s1.8498 1.3294 3.0628 1.3294c1.2518 0 2.2884-0.43682 3.1146-1.3075 0.82325-0.87263 1.2359-2.0145 1.2359-3.4267 0-1.3832-0.41262-2.5032-1.2359-3.3599-0.82524-0.85668-1.8668-1.2845-3.1286-1.2845z"/><path d="m76.972 14.01h3.9857v22.03h-3.9857v-1.6804c-0.7774 0.73999-1.5578 1.2725-2.3412 1.5997-0.78239 0.32512-1.6306 0.48868-2.5445 0.48868-2.0521 0-3.8262-0.79684-5.3232-2.3885-1.497-1.5937-2.2455-3.5723-2.2455-5.9389 0-2.4543 0.72458-4.4659 2.1727-6.0336 1.4492-1.5677 3.2083-2.3516 5.2794-2.3516 0.95282 0 1.8478 0.18051 2.683 0.54053 0.83521 0.36002 1.6086 0.90056 2.3183 1.6216v-7.8876zm-4.191 9.4085c-1.2319 0-2.2555 0.43582-3.0697 1.3075-0.81428 0.87263-1.2229 1.9896-1.2229 3.3529 0 1.3733 0.41462 2.5032 1.2438 3.3888 0.82923 0.8856 1.8498 1.3294 3.0628 1.3294 1.2518 0 2.2894-0.43682 3.1136-1.3075 0.82425-0.87263 1.2369-2.0145 1.2369-3.4267 0-1.3832-0.41262-2.5032-1.2369-3.3599-0.82425-0.85668-1.8658-1.2845-3.1276-1.2845z"/><path d="m94.71 22.367-2.4678 2.4693c-1.0027-0.99331-1.9126-1.49-2.7299-1.49-0.4475 0-0.79833 0.09474-1.0515 0.28523-0.25315 0.19048-0.37973 0.42584-0.37973 0.70808 0 0.21442 0.07973 0.41188 0.24119 0.5914 0.15947 0.18051 0.55714 0.42584 1.189 0.738l1.4601 0.73002c1.5379 0.75994 2.5943 1.5338 3.1684 2.3227s0.86112 1.7144 0.86112 2.7755c0 1.4122-0.51827 2.591-1.5558 3.5354-1.0355 0.94444-2.4259 1.4172-4.1681 1.4172-2.3163 0-4.1661-0.90554-5.5475-2.7176l2.4528-2.6737c0.46744 0.54552 1.0146 0.98633 1.6425 1.3214 0.6269 0.33708 1.184 0.50463 1.6714 0.50463 0.52525 0 0.94883-0.12666 1.2698-0.37997 0.32093-0.25331 0.48139-0.54552 0.48139-0.87662 0-0.61334-0.57907-1.2127-1.7372-1.7971l-1.3435-0.67218c-2.5694-1.2955-3.8541-2.9171-3.8541-4.8648 0-1.2566 0.48339-2.3297 1.4522-3.2213 0.96876-0.89158 2.2076-1.3364 3.7166-1.3364 1.0316 0 2.0023 0.22638 2.9123 0.67916s1.6844 1.104 2.3163 1.9517z"/><path d="m100.31 31.877c0.63288 0 1.1731 0.2214 1.6206 0.6652 0.4475 0.4418 0.67176 0.98034 0.67176 1.6136 0 0.63328-0.22426 1.1738-0.67176 1.6216-0.44751 0.44778-0.98771 0.67218-1.6206 0.67218-0.63289 0-1.1731-0.22439-1.6206-0.67218-0.4475-0.44779-0.67176-0.98832-0.67176-1.6216 0-0.63328 0.22425-1.1718 0.67176-1.6136 0.4485-0.4438 0.9887-0.6652 1.6206-0.6652z"/><path d="m106.99 14.287h3.9857v5.8581h2.3651v3.4327h-2.3651v12.462h-3.9857v-12.461h-2.0442v-3.4327h2.0442z"/><path d="m115.44 20.147h3.9857v1.826c0.68173-0.74997 1.4382-1.3094 2.2714-1.6804s1.7412-0.55549 2.7249-0.55549c0.99268 0 1.8897 0.24334 2.688 0.73002s1.4412 1.1978 1.9286 2.1332c0.63288-0.93546 1.4093-1.6455 2.3302-2.1332s1.9266-0.73002 3.0169-0.73002c1.1302 0 2.1229 0.26329 2.98 0.78886 0.85714 0.52558 1.4741 1.2127 1.8478 2.0594 0.37375 0.8467 0.56212 2.225 0.56212 4.1348v9.3207h-4.0146v-8.0641c0-1.8021-0.22425-3.0218-0.67176-3.6591-0.44751-0.63727-1.1193-0.95641-2.0143-0.95641-0.68173 0-1.2927 0.19447-1.8319 0.58442-0.54119 0.38994-0.94184 0.92748-1.205 1.6146-0.26312 0.68614-0.39468 1.7891-0.39468 3.308v7.1725h-4.0146v-7.6991c0-1.4221-0.10466-2.4514-0.31396-3.0906-0.21029-0.63727-0.52424-1.112-0.94385-1.4241-0.41959-0.31215-0.9269-0.46773-1.5219-0.46773-0.66278 0-1.2658 0.19746-1.807 0.5914-0.5412 0.39493-0.94585 0.94743-1.215 1.6585-0.26811 0.71107-0.40166 1.831-0.40166 3.3599v7.0718h-3.9857z"/></g><g transform="matrix(1.3156 0 0 1.4442 -8.3192 1.4127)" fill-rule="evenodd"><path d="m7.9027 19.73 5.998 0.0046 5.2658-5.0617s-0.16708-2.6911-0.49211-4.2995l-0.18288-0.90497s-6.8362 5.9556-8.3903 7.7168c-1.554 1.7612-2.1985 2.5448-2.1985 2.5448z"/><path d="m18.722 9.263c0.19489 1.0847 0.8995 5.6291 0.77832 8.3845-0.05419 1.2322-0.21476 2.071-0.83784 2.1967l-10.984 0.13278-0.022893 4.0613h13.04c0.95846 0.0723 3.0776-0.96444 3.1107-2.062l0.05771-1.9123 0.0046-10.796z"/><path d="m19.167 15.035c0.05164-0.01048 0.23543 3.6112-0.1864 4.255-0.09368 0.143-0.15572 0.28167-0.4288 0.35228l-4.2671-0.0099z"/></g></g></g></svg>
