<svg xmlns="http://www.w3.org/2000/svg" viewBox="0 0 140.46755 22.05967"><title>WebBadsWhite</title><path d="M33.67035,6.03876V13.794a7.36517,7.36517,0,0,1,2.29813-1.59418,6.61935,6.61935,0,0,1,2.64226-.53139A6.82239,6.82239,0,0,1,43.81,13.98024a8.38886,8.38886,0,0,1,2.14027,5.9316,8.189,8.189,0,0,1-2.21185,5.83846A6.96818,6.96818,0,0,1,38.496,28.09843a6.529,6.529,0,0,1-2.51284-.48041,7.67684,7.67684,0,0,1-2.31185-1.57261v1.651H29.779V6.03876Zm4.12172,9.24938a4.09484,4.09484,0,0,0-3.07364,1.26377A4.55359,4.55359,0,0,0,33.49779,19.855a4.6932,4.6932,0,0,0,1.22064,3.36876,4.06307,4.06307,0,0,0,3.07364,1.28534,3.98092,3.98092,0,0,0,3.02267-1.30691,4.675,4.675,0,0,0,1.2275-3.33151,4.62665,4.62665,0,0,0-1.20593-3.2962A3.99333,3.99333,0,0,0,37.79207,15.28814Z" transform="translate(-1.45991 -6.03876)" style="fill:#fff"/><path d="M60.72727,12.07134H64.649V27.69646H60.72727v-1.652a7.6904,7.6904,0,0,1-2.302,1.57261,6.46539,6.46539,0,0,1-2.503.48041,6.959,6.959,0,0,1-5.23648-2.34813,8.19512,8.19512,0,0,1-2.20891-5.83846,8.39566,8.39566,0,0,1,2.13734-5.9316,6.80963,6.80963,0,0,1,5.19236-2.31185,6.6054,6.6054,0,0,1,2.63932.53139A7.16566,7.16566,0,0,1,60.7263,13.793V12.07134Zm-4.12172,3.2168a3.95957,3.95957,0,0,0-3.01973,1.28534,4.63322,4.63322,0,0,0-1.203,3.2962,4.67915,4.67915,0,0,0,1.22358,3.33151,3.96655,3.96655,0,0,0,3.01286,1.30691,4.04626,4.04626,0,0,0,3.06385-1.28534A4.7071,4.7071,0,0,0,60.89885,19.854a4.56684,4.56684,0,0,0-1.21573-3.30307A4.0907,4.0907,0,0,0,56.60555,15.28814Z" transform="translate(-1.45991 -6.03876)" style="fill:#fff"/><path d="M80.14567,6.03876h3.92074v21.6577H80.14567v-1.652a7.69412,7.69412,0,0,1-2.303,1.57261,6.462,6.462,0,0,1-2.503.48041,6.956,6.956,0,0,1-5.23648-2.34813,8.19512,8.19512,0,0,1-2.20891-5.83846,8.39562,8.39562,0,0,1,2.13734-5.9316,6.81165,6.81165,0,0,1,5.19333-2.31185,6.60194,6.60194,0,0,1,2.63932.53139A7.19816,7.19816,0,0,1,80.14468,13.793V6.03876ZM76.023,15.28814a3.95956,3.95956,0,0,0-3.01973,1.28534,4.63749,4.63749,0,0,0-1.203,3.2962,4.67915,4.67915,0,0,0,1.22358,3.33151,3.96655,3.96655,0,0,0,3.01286,1.30691,4.04116,4.04116,0,0,0,3.06287-1.28534A4.70347,4.70347,0,0,0,80.31626,19.854a4.56337,4.56337,0,0,0-1.21671-3.30307A4.087,4.087,0,0,0,76.023,15.28814Z" transform="translate(-1.45991 -6.03876)" style="fill:#fff"/><path d="M97.59438,14.25378l-2.42754,2.42755a4.106,4.106,0,0,0-2.6854-1.46477,1.68807,1.68807,0,0,0-1.03435.28041.842.842,0,0,0-.37354.6961.85057.85057,0,0,0,.23726.5814A4.40916,4.40916,0,0,0,92.48046,17.5l1.43633.71768a8.46612,8.46612,0,0,1,3.11679,2.28342,4.75571,4.75571,0,0,1-.68336,6.20416,5.85472,5.85472,0,0,1-4.10016,1.39319A6.5152,6.5152,0,0,1,86.793,25.42676l2.41283-2.62853a5.55681,5.55681,0,0,0,1.61575,1.29907,3.55982,3.55982,0,0,0,1.64419.4961,1.95973,1.95973,0,0,0,1.24907-.37355,1.083,1.083,0,0,0,.47355-.86179q0-.90445-1.70889-1.76674l-1.32163-.66081q-3.79133-1.91037-3.79132-4.78254A4.14864,4.14864,0,0,1,88.795,12.98118a5.18916,5.18916,0,0,1,3.656-1.31377,6.34454,6.34454,0,0,1,5.14333,2.58637Z" transform="translate(-1.45991 -6.03876)" style="fill:#fff"/><path d="M103.10832,23.60316a2.18163,2.18163,0,0,1,1.59418.654,2.1459,2.1459,0,0,1,.66081,1.58634,2.255,2.255,0,0,1-4.51,0,2.14587,2.14587,0,0,1,.66081-1.58634A2.18481,2.18481,0,0,1,103.10832,23.60316Z" transform="translate(-1.45991 -6.03876)" style="fill:#fff"/><path d="M109.67328,6.31132H113.594v5.759h2.32656V15.445H113.594V27.69646h-3.92074V15.446h-2.01086V12.07135h2.01086Z" transform="translate(-1.45991 -6.03876)" style="fill:#fff"/><path d="M117.9883,12.07134H121.909v1.79517a6.69875,6.69875,0,0,1,2.2344-1.652,6.51675,6.51675,0,0,1,2.6805-.5461,4.98377,4.98377,0,0,1,2.64422.71767,5.19159,5.19159,0,0,1,1.89713,2.09714,6.32877,6.32877,0,0,1,2.29225-2.09714,6.24525,6.24525,0,0,1,2.96775-.71767,5.49554,5.49554,0,0,1,2.93149.77552,4.47331,4.47331,0,0,1,1.81772,2.02459,10.84428,10.84428,0,0,1,.553,4.06486v9.1631h-3.94917V19.7687a6.77866,6.77866,0,0,0-.66081-3.5972,2.26237,2.26237,0,0,0-1.98144-.94023,3.00029,3.00029,0,0,0-1.802.57453,3.392,3.392,0,0,0-1.18534,1.58732,9.84552,9.84552,0,0,0-.38825,3.25208v7.05126h-3.94917V20.12754a10.68751,10.68751,0,0,0-.30884-3.03836,2.75481,2.75481,0,0,0-.92846-1.4,2.43829,2.43829,0,0,0-1.49712-.45982,2.95271,2.95271,0,0,0-1.77752.5814,3.48,3.48,0,0,0-1.19515,1.63045,10.08512,10.08512,0,0,0-.39511,3.30307v6.95223h-3.92074Z" transform="translate(-1.45991 -6.03876)" style="fill:#fff"/><path d="M1.77442,21.04293l7.6298.00634L16.10256,14.074s-.21254-3.70843-.626-5.92488l-.23263-1.24709s-8.696,8.207-10.67285,10.63407S1.77442,21.04293,1.77442,21.04293Z" transform="translate(-1.45991 -6.03876)" style="fill:#fff;fill-rule:evenodd"/><path d="M15.53718,6.61936a73.582,73.582,0,0,1,.99007,11.55412c-.06893,1.698-.27319,2.85395-1.06578,3.02719l-13.97244.183-.02912,5.59654H18.04745c1.21922.09964,3.91486-1.329,3.957-2.84149l.07341-2.63517.00586-14.87786Z" transform="translate(-1.45991 -6.03876)" style="fill:#fff;fill-rule:evenodd"/><path d="M16.10256,14.57368c.06569-.01444.29948,4.9763-.23711,5.86358a.82.82,0,0,1-.54546.48546l-5.428-.01364Z" transform="translate(-1.45991 -6.03876)" style="fill:#fff;fill-rule:evenodd"/></svg>