<svg xmlns="http://www.w3.org/2000/svg" viewBox="0 0 66.04603 65.21969"><title>WebBadsTRBlack</title><path d="M.999,48.04574l24.4338.02031L46.88365,25.72833S46.203,13.85239,44.87893,6.75439l-.745-3.9937S16.28574,29.04292,9.955,36.81541.999,48.04574.999,48.04574Z" transform="translate(0.00822 -1.85546)" style="fill-rule:evenodd"/><path d="M45.07306,1.85546a235.64,235.64,0,0,1,3.17062,37.00111c-.22074,5.4377-.87487,9.13954-3.41307,9.69432L.085,49.13694-.00822,67.05939H53.112c3.90445.31909,12.537-4.256,12.672-9.09963l.23509-8.43892.01876-47.6451Z" transform="translate(0.00822 -1.85546)" style="fill-rule:evenodd"/><path d="M46.88365,27.32851c.21036-.04624.95906,15.93618-.75933,18.77762a2.626,2.626,0,0,1-1.74679,1.55465L26.99482,47.6171Z" transform="translate(0.00822 -1.85546)" style="fill-rule:evenodd"/></svg>
